<mxfile host="app.diagrams.net" agent="Mozilla/5.0 (Macintosh; Intel Mac OS X 10_15_7) AppleWebKit/605.1.15 (KHTML, like Gecko) Version/18.0.1 Safari/605.1.15" version="24.8.4">
  <diagram name="Page-1" id="zXRLlda2ir4thyWtPU_O">
    <mxGraphModel dx="954" dy="622" grid="1" gridSize="10" guides="1" tooltips="1" connect="1" arrows="1" fold="1" page="1" pageScale="1" pageWidth="827" pageHeight="1169" math="0" shadow="0">
      <root>
        <mxCell id="0" />
        <mxCell id="1" parent="0" />
        <mxCell id="PtEXi9XJBBY4uoOFLUXO-22" value="" style="rounded=0;whiteSpace=wrap;html=1;fillColor=#d5e8d4;strokeColor=#82b366;" vertex="1" parent="1">
          <mxGeometry x="80" y="250" width="280" height="70" as="geometry" />
        </mxCell>
        <mxCell id="PtEXi9XJBBY4uoOFLUXO-21" value="" style="rounded=0;whiteSpace=wrap;html=1;fillColor=#fff2cc;strokeColor=#d6b656;" vertex="1" parent="1">
          <mxGeometry x="80" y="320" width="280" height="78" as="geometry" />
        </mxCell>
        <mxCell id="PtEXi9XJBBY4uoOFLUXO-1" value="" style="endArrow=classic;html=1;rounded=0;" edge="1" parent="1">
          <mxGeometry width="50" height="50" relative="1" as="geometry">
            <mxPoint x="80" y="400" as="sourcePoint" />
            <mxPoint x="760" y="400" as="targetPoint" />
          </mxGeometry>
        </mxCell>
        <mxCell id="PtEXi9XJBBY4uoOFLUXO-2" value="" style="endArrow=none;html=1;rounded=0;" edge="1" parent="1">
          <mxGeometry width="50" height="50" relative="1" as="geometry">
            <mxPoint x="80" y="450" as="sourcePoint" />
            <mxPoint x="80" as="targetPoint" />
          </mxGeometry>
        </mxCell>
        <mxCell id="PtEXi9XJBBY4uoOFLUXO-3" value="V1_PIC32_IFM" style="rounded=0;whiteSpace=wrap;html=1;gradientColor=#B9E0A5;fillColor=#E6D0DE;gradientDirection=east;" vertex="1" parent="1">
          <mxGeometry x="80" y="338" width="120" height="60" as="geometry" />
        </mxCell>
        <mxCell id="PtEXi9XJBBY4uoOFLUXO-4" value="2024.11" style="text;html=1;align=center;verticalAlign=middle;resizable=0;points=[];autosize=1;strokeColor=none;fillColor=none;" vertex="1" parent="1">
          <mxGeometry x="120" y="398" width="70" height="30" as="geometry" />
        </mxCell>
        <mxCell id="PtEXi9XJBBY4uoOFLUXO-5" value="V1.5_PIC32 + Stanley+external IO convertet" style="rounded=0;whiteSpace=wrap;html=1;gradientColor=#B9E0A5;fillColor=#FF99CC;gradientDirection=west;" vertex="1" parent="1">
          <mxGeometry x="240" y="260" width="120" height="60" as="geometry" />
        </mxCell>
        <mxCell id="PtEXi9XJBBY4uoOFLUXO-6" value="V1.7_STM32_Stanley&lt;div&gt;CAN/485 selector&lt;/div&gt;" style="rounded=0;whiteSpace=wrap;html=1;gradientColor=#3399FF;fillColor=#FF99CC;gradientDirection=east;" vertex="1" parent="1">
          <mxGeometry x="360" y="190" width="120" height="60" as="geometry" />
        </mxCell>
        <mxCell id="PtEXi9XJBBY4uoOFLUXO-7" value="V2.0_STM32_Stanley&lt;div&gt;RS485&lt;/div&gt;" style="rounded=0;whiteSpace=wrap;html=1;fillColor=#0050ef;fontColor=#ffffff;strokeColor=#001DBC;gradientColor=default;gradientDirection=east;" vertex="1" parent="1">
          <mxGeometry x="480" y="110" width="120" height="60" as="geometry" />
        </mxCell>
        <mxCell id="PtEXi9XJBBY4uoOFLUXO-8" value="" style="endArrow=none;dashed=1;html=1;dashPattern=1 3;strokeWidth=2;rounded=0;fillColor=#d5e8d4;strokeColor=#006600;" edge="1" parent="1">
          <mxGeometry width="50" height="50" relative="1" as="geometry">
            <mxPoint x="80" y="320" as="sourcePoint" />
            <mxPoint x="760" y="319" as="targetPoint" />
          </mxGeometry>
        </mxCell>
        <mxCell id="PtEXi9XJBBY4uoOFLUXO-9" value="" style="endArrow=none;dashed=1;html=1;dashPattern=1 3;strokeWidth=2;rounded=0;fillColor=#dae8fc;strokeColor=#6c8ebf;" edge="1" parent="1">
          <mxGeometry width="50" height="50" relative="1" as="geometry">
            <mxPoint x="80" y="170" as="sourcePoint" />
            <mxPoint x="760" y="170" as="targetPoint" />
          </mxGeometry>
        </mxCell>
        <mxCell id="PtEXi9XJBBY4uoOFLUXO-11" value="2025.02" style="text;html=1;align=center;verticalAlign=middle;resizable=0;points=[];autosize=1;strokeColor=none;fillColor=none;" vertex="1" parent="1">
          <mxGeometry x="260" y="398" width="70" height="30" as="geometry" />
        </mxCell>
        <mxCell id="PtEXi9XJBBY4uoOFLUXO-12" value="" style="endArrow=none;dashed=1;html=1;rounded=0;fillColor=#f8cecc;strokeColor=#b85450;" edge="1" parent="1">
          <mxGeometry width="50" height="50" relative="1" as="geometry">
            <mxPoint x="360" y="450" as="sourcePoint" />
            <mxPoint x="360" as="targetPoint" />
          </mxGeometry>
        </mxCell>
        <mxCell id="PtEXi9XJBBY4uoOFLUXO-13" value="Gateway v1.0" style="text;html=1;align=center;verticalAlign=middle;resizable=0;points=[];autosize=1;strokeColor=#A50040;fillColor=#d80073;fontColor=#ffffff;" vertex="1" parent="1">
          <mxGeometry x="160" y="10" width="100" height="30" as="geometry" />
        </mxCell>
        <mxCell id="PtEXi9XJBBY4uoOFLUXO-14" value="Gateway v1.5" style="text;html=1;align=center;verticalAlign=middle;resizable=0;points=[];autosize=1;strokeColor=#001DBC;fillColor=#0050ef;fontColor=#ffffff;" vertex="1" parent="1">
          <mxGeometry x="370" y="10" width="100" height="30" as="geometry" />
        </mxCell>
        <mxCell id="PtEXi9XJBBY4uoOFLUXO-15" value="" style="endArrow=none;dashed=1;html=1;dashPattern=1 3;strokeWidth=2;rounded=0;fillColor=#d5e8d4;strokeColor=#82b366;" edge="1" parent="1">
          <mxGeometry width="50" height="50" relative="1" as="geometry">
            <mxPoint x="80" y="250" as="sourcePoint" />
            <mxPoint x="760" y="250" as="targetPoint" />
          </mxGeometry>
        </mxCell>
        <mxCell id="PtEXi9XJBBY4uoOFLUXO-17" value="2025.06" style="text;html=1;align=center;verticalAlign=middle;resizable=0;points=[];autosize=1;strokeColor=none;fillColor=none;" vertex="1" parent="1">
          <mxGeometry x="505" y="398" width="70" height="30" as="geometry" />
        </mxCell>
        <mxCell id="PtEXi9XJBBY4uoOFLUXO-18" value="2025.04" style="text;html=1;align=center;verticalAlign=middle;resizable=0;points=[];autosize=1;strokeColor=none;fillColor=none;" vertex="1" parent="1">
          <mxGeometry x="385" y="398" width="70" height="30" as="geometry" />
        </mxCell>
        <mxCell id="PtEXi9XJBBY4uoOFLUXO-19" value="" style="endArrow=none;dashed=1;html=1;rounded=0;fillColor=#1ba1e2;strokeColor=#006EAF;" edge="1" parent="1">
          <mxGeometry width="50" height="50" relative="1" as="geometry">
            <mxPoint x="480" y="450" as="sourcePoint" />
            <mxPoint x="480" as="targetPoint" />
          </mxGeometry>
        </mxCell>
        <mxCell id="PtEXi9XJBBY4uoOFLUXO-20" value="MILK FLOW SENSOR" style="text;html=1;align=center;verticalAlign=middle;resizable=0;points=[];autosize=1;strokeColor=none;fillColor=none;rotation=270;" vertex="1" parent="1">
          <mxGeometry x="-10" y="230" width="140" height="30" as="geometry" />
        </mxCell>
        <mxCell id="PtEXi9XJBBY4uoOFLUXO-25" value="NO Gateway" style="text;html=1;align=center;verticalAlign=middle;resizable=0;points=[];autosize=1;strokeColor=none;fillColor=#000000;fontColor=#E6D0DE;" vertex="1" parent="1">
          <mxGeometry x="495" y="10" width="90" height="30" as="geometry" />
        </mxCell>
        <mxCell id="PtEXi9XJBBY4uoOFLUXO-26" value="Работает с роботом 1.5&lt;div&gt;Работает с роботом 2.0&lt;/div&gt;&lt;div&gt;Работает со внешним преобразователем 4-20&lt;/div&gt;" style="text;html=1;align=center;verticalAlign=middle;resizable=0;points=[];autosize=1;strokeColor=none;fillColor=none;" vertex="1" parent="1">
          <mxGeometry x="80" y="33" width="280" height="60" as="geometry" />
        </mxCell>
        <mxCell id="PtEXi9XJBBY4uoOFLUXO-27" value="Работает с 1.5, 2.0&lt;div&gt;Интегрированный&lt;/div&gt;&lt;div&gt;преобразователь&amp;nbsp;&lt;/div&gt;&lt;div&gt;4-20&lt;/div&gt;" style="text;html=1;align=center;verticalAlign=middle;resizable=0;points=[];autosize=1;strokeColor=none;fillColor=none;" vertex="1" parent="1">
          <mxGeometry x="355" y="45" width="130" height="70" as="geometry" />
        </mxCell>
        <mxCell id="PtEXi9XJBBY4uoOFLUXO-28" value="Работает с 2.0&lt;div&gt;и датчиком Stanley&lt;/div&gt;" style="text;html=1;align=center;verticalAlign=middle;resizable=0;points=[];autosize=1;strokeColor=none;fillColor=none;" vertex="1" parent="1">
          <mxGeometry x="480" y="53" width="130" height="40" as="geometry" />
        </mxCell>
        <mxCell id="PtEXi9XJBBY4uoOFLUXO-30" value="" style="endArrow=none;dashed=1;html=1;dashPattern=1 3;strokeWidth=2;rounded=0;" edge="1" parent="1">
          <mxGeometry width="50" height="50" relative="1" as="geometry">
            <mxPoint x="230" y="450" as="sourcePoint" />
            <mxPoint x="230" y="250" as="targetPoint" />
          </mxGeometry>
        </mxCell>
      </root>
    </mxGraphModel>
  </diagram>
</mxfile>
